# xmcd CD Database Entry
#
# Track frame offsets:
# 150
# 18454
# 41227
# 65122
# 96767
# 116351
# 136780
# 151661
# 167289
# 178309
# 194879
# 213466
#
# Disc length: 3202 seconds
#
# Revision: 1
# Processed by: cddbd v1.5PL3 Copyright (c) Steve Scherf et al.
# Submitted via: tcd 2.0b
#
DISCID=a80c800c
DTITLE=Soda Stereo
DYEAR=1900
DGENRE=
TTITLE0=De Musica Ligera
TTITLE1=Cuando Pase el temblor
TTITLE2=Profugos
TTITLE3=El rito
TTITLE4=Afrodisiacos
TTITLE5=Ella uso mi cabeza como un revolver
TTITLE6=Juegos de Seduccion
TTITLE7=Zoom
TTITLE8=Te para
TTITLE9=Paseando en Roma
TTITLE10=Cancion Animal
TTITLE11=Un millon de anyos Luz
EXTD=
EXTT0=
EXTT1=
EXTT2=
EXTT3=
EXTT4=
EXTT5=
EXTT6=
EXTT7=
EXTT8=
EXTT9=
EXTT10=
EXTT11=
PLAYORDER=
